{
    "asset": {
        "generator": "COLLADA2GLTF",
        "version": "2.0"
    },
    "scene": 0,
    "scenes": [
        {
            "nodes": [
                0
            ]
        }
    ],
    "nodes": [
        {
            "children": [
                2,
                1
            ],
            "matrix": [
                0.009999999776482582,
                0.0,
                0.0,
                0.0,
                0.0,
                0.009999999776482582,
                0.0,
                0.0,
                0.0,
                0.0,
                0.009999999776482582,
                0.0,
                0.0,
                0.0,
                0.0,
                1.0
            ]
        },
        {
            "matrix": [
                -0.7289686799049377,
                0.0,
                -0.6845470666885376,
                0.0,
                -0.4252049028873444,
                0.7836934328079224,
                0.4527972936630249,
                0.0,
                0.5364750623703003,
                0.6211478114128113,
                -0.571287989616394,
                0.0,
                400.1130065917969,
                463.2640075683594,
                -431.0780334472656,
                1.0
            ],
            "camera": 0
        },
        {
            "mesh": 0
        }
    ],
    "cameras": [
        {
            "perspective": {
                "aspectRatio": 1.5,
                "yfov": 0.6605925559997559,
                "zfar": 10000.0,
                "znear": 1.0
            },
            "type": "perspective"
        }
    ],
    "meshes": [
        {
            "primitives": [
                {
                    "attributes": {
                        "NORMAL": 1,
                        "POSITION": 2,
                        "TEXCOORD_0": 3
                    },
                    "indices": 0,
                    "mode": 4,
                    "material": 0
                }
            ],
            "name": "LOD3spShape"
        }
    ],
    "accessors": [
        {
            "bufferView": 0,
            "byteOffset": 0,
            "componentType": 5126,
            "count": 729133,
            "max": [
                575.0,987.0,353.0
            ],
            "min": [
                182.0,10.0,121.0
            ],
            "type": "VEC3"
        },
        {
            "bufferView": 1,
            "byteOffset": 0,
            "componentType": 5126,
            "count": 729133,
            "max": [
                1.0,
                1.0,
                1.0,
		1.0
            ],
            "min": [
                0.0470588244497776,
                0.0,
                0.019607843831181527,
		1.0
            ],
            "type": "VEC4"
        }
    ],
    "materials": [
        {
            "pbrMetallicRoughness": {
                "baseColorTexture": {
                    "index": 0
                },
                "metallicFactor": 0.0
            },
            "emissiveFactor": [
                0.0,
                0.0,
                0.0
            ],
            "name": "blinn3-fx"
        }
    ],
    "textures": [
        {
            "sampler": 0,
            "source": 0
        }
    ],
    "images": [
        {
            "uri": "image.png"
        }
    ],
    "samplers": [
        {
            "magFilter": 9729,
            "minFilter": 9986,
            "wrapS": 10497,
            "wrapT": 10497
        }
    ],
    "bufferViews": [
        {
            "buffer": 0,
            "byteOffset": 0,
            "byteLength": 8749596,
            "target": 34962
        },
        {
            "buffer": 0,
            "byteOffset": 8749596,
            "byteLength": 11666128,
            "byteStride": 12,
            "target": 34962
        }
    ],
    "buffers": [
        {
            "byteLength": 20415724,
            "uri": "xe5ncdd5bc01.bin"
        }
    ]
}
